<svg xmlns="http://www.w3.org/2000/svg" viewBox="0 0 24 24">
  <title>ur</title>
  <path d="M5.74,16.71a2.4,2.4,0,0,0,.58.91,2.8,2.8,0,0,0,1.07.64A4.64,4.64,0,0,0,9,18.51a4.66,4.66,0,0,0,1.65-.25,2.76,2.76,0,0,0,1.06-.64,2.4,2.4,0,0,0,.58-.91,3,3,0,0,0,.18-1V13.15h0l0-3.58a1.09,1.09,0,0,1,.36-.86,1.69,1.69,0,0,1,1.16-.32,2.09,2.09,0,0,1,.95.18,1.09,1.09,0,0,1,.52.91,2.45,2.45,0,0,1-.71,1.73,6.74,6.74,0,0,0-1,1.47,2.78,2.78,0,0,0,0,2.24,4.78,4.78,0,0,0,.71.95l3.83,3.79h0a1.22,1.22,0,0,0,.73-1.12V17.48l-3.13-3.13a1,1,0,0,1,0-1.43s.91-1.26,1.1-1.57a3.43,3.43,0,0,0,.66-1.94h0V9.28s0-.08,0-.12V9.09c0-.05,0-.09,0-.14a1.2,1.2,0,0,0,0-.29,3,3,0,0,0-.1-.32,2.48,2.48,0,0,0-.63-.93,3,3,0,0,0-1.12-.65,4.9,4.9,0,0,0-1.69-.25,4.88,4.88,0,0,0-1.68.25,3.08,3.08,0,0,0-1.13.65,2.48,2.48,0,0,0-.63.93,2.91,2.91,0,0,0-.19,1.05v3.93h0v2.17a1.16,1.16,0,0,1-.31.87,1.53,1.53,0,0,1-1.09.3,1.53,1.53,0,0,1-1.09-.3,1.16,1.16,0,0,1-.31-.87V4.58H5.55v11.1A3,3,0,0,0,5.74,16.71Z"
        transform="translate(0 0)"/>
</svg>
