<svg xmlns="http://www.w3.org/2000/svg" viewBox="0 0 24 24">
    <title>release node</title>
    <g transform="translate(5.000000, 5.000000)">
         <rect x="6" y="7" width="2" height="7" rx="1"></rect>
         <rect x="10" y="0" width="2" height="5" rx="1"></rect>
         <rect x="2" y="0" width="2" height="5" rx="1"></rect>
         <path d="M3.35355339,2.85355339 C3.90583814,2.85355339 4.35355339,3.30126864 4.35355339,3.85355339 L4.35355339,6.85355339 C4.35355339,7.40583814 3.90583814,7.85355339 3.35355339,7.85355339 C2.80126864,7.85355339 2.35355339,7.40583814 2.35355339,6.85355339 L2.35355339,3.85355339 C2.35355339,3.30126864 2.80126864,2.85355339 3.35355339,2.85355339 Z" transform="translate(3.353553, 5.353553) rotate(-45.000000) translate(-3.353553, -5.353553) "></path>
         <path d="M10.6464466,2.85355339 C11.1987314,2.85355339 11.6464466,3.30126864 11.6464466,3.85355339 L11.6464466,6.85355339 C11.6464466,7.40583814 11.1987314,7.85355339 10.6464466,7.85355339 C10.0941619,7.85355339 9.64644661,7.40583814 9.64644661,6.85355339 L9.64644661,3.85355339 C9.64644661,3.30126864 10.0941619,2.85355339 10.6464466,2.85355339 Z" transform="translate(10.646447, 5.353553) rotate(45.000000) translate(-10.646447, -5.353553) "></path>
         <rect x="4" y="6" width="6" height="2" rx="1"></rect>
    </g>
</svg>
